<?xml version="1.0" standalone="no"?><!DOCTYPE svg PUBLIC "-//W3C//DTD SVG 1.1//EN" "http://www.w3.org/Graphics/SVG/1.1/DTD/svg11.dtd" ><svg xmlns="http://www.w3.org/2000/svg"><metadata></metadata><defs><font id="iconfont" horiz-adv-x="1043"><font-face font-family="iconfont" font-weight="400" font-stretch="normal" units-per-em="1024" panose-1="2 0 5 3 0 0 0 0 0 0" ascent="896" descent="-128" x-height="0" bbox="-19 -65 1031 965" underline-thickness="0" underline-position="10" unicode-range="U+0020-e915" /><missing-glyph horiz-adv-x="1024"  /><glyph glyph-name="xiazai" unicode="&#xe62f;" d="M939 755 l-177 0 l0 -98 l101 0 q22 0 36.5 -13.5 q14.5 -13.5 15.5 -33.5 l0 -531 q-1 -20 -15.5 -33.5 q-14.5 -13.5 -36.5 -13.5 l-710 0 q-22 0 -36.5 13.5 q-14.5 13.5 -15.5 33.5 l0 531 q1 20 15.5 33.5 q14.5 13.5 36.5 13.5 l101 0 l0 98 l-177 0 q-33 -2 -54.5 -22 q-21.5 -20 -22.5 -51 l0 -675 q1 -30 22.5 -50.5 q21.5 -20.5 54.5 -21.5 l862 0 q33 1 54.5 21.5 q21.5 20.5 22.5 50.5 l0 675 q-1 31 -22.5 51 q-21.5 20 -54.5 22 l0 0 ZM513 202 l18 20 l6 -7 l259 291 l-69 78 l-167 -189 l0 528 q-1 17 -11 29.5 q-10 12.5 -25 12.5 l-25 0 q-16 0 -25.5 -12.5 q-9.5 -12.5 -10.5 -29.5 l0 -506 l-147 167 l-70 -81 l267 -301 Z" /><glyph glyph-name="xihuan" unicode="&#xe86f;" d="M700 951 q64 10 122.5 -10 q58.5 -20 108 -70 q49.5 -50 72 -113.5 q22.5 -63.5 16 -133 q-6.5 -69.5 -40.5 -136 q-34 -66.5 -93 -126.5 l-340 -347 q-14 -15 -33 -15 q-19 0 -33 15 l-340 347 q-59 60 -93 126.5 q-34 66.5 -40.5 136 q-6.5 69.5 16 133 q22.5 63.5 72 113.5 q49.5 50 108 70 q58.5 20 122.5 10 q96 -16 188 -96 q92 80 188 96 Z" /><glyph glyph-name="xihuan1" unicode="&#xe870;" d="M532 90 l37 38 l273 268 q52 50 80.5 104 q28.5 54 34 108 q5.5 54 -13 102 q-18.5 48 -58.5 87 q-77 76 -179 61 q-86 -13 -172 -91 q-7 -5 -16 -5 q-9 0 -16 5 q-86 78 -172 91 q-102 15 -179 -61 q-40 -39 -58.5 -87 q-18.5 -48 -13 -102 q5.5 -54 34 -108 q28.5 -54 80.5 -104 l323 -319 l15 13 ZM512 43 l-1 -1 q0 1 1 1 q1 0 1 -1 l-1 1 ZM703 935 q65 10 124 -10 q59 -20 109 -69 q50 -49 72.5 -111.5 q22.5 -62.5 16 -131 q-6.5 -68.5 -41 -133.5 q-34.5 -65 -94.5 -124 l-343 -342 q-14 -14 -33.5 -14 q-19.5 0 -33.5 14 l-342 342 q-60 59 -94.5 124 q-34.5 65 -41 133.5 q-6.5 68.5 16 131 q22.5 62.5 72.5 111.5 q50 49 109 69 q59 20 124 10 q98 -15 190 -94 q92 79 190 94 Z" /><glyph glyph-name="space" unicode=" " d="M0 0 l0 0 l0 0 l0 0 Z" /><glyph glyph-name="ok" unicode="&#xe900;" d="M128 508 q-13 0 -25 -5 q-11 -4 -20 -13 q-19 -20 -19 -45 q0 -25 19 -44 l252 -246 q19 -18 45 -18 q26 0 45 18 l512 500 q9 9 14 21 q5 11 5 23 q0 13 -5 24 q-5 12 -14 21 q-19 17 -45 17 q-26 0 -45 -17 l-444 -435 q-10 -9 -23 -9 q-13 0 -23 9 l-184 181 q-9 9 -21 13 q-11 5 -24 5 ZM380 74 q-26 0 -49 9 q-23 10 -41 27 l-253 247 q-37 38 -37 88 q0 50 37 89 q39 35 91 35 q52 0 90 -35 l162 -158 l422 412 q38 35 90 35 q52 0 91 -35 q18 -18 27 -41 q10 -22 10 -48 q0 -25 -10 -47 q-9 -23 -27 -41 l-512 -501 q-19 -17 -42 -27 q-23 -9 -49 -9 Z" /><glyph glyph-name="no" unicode="&#xe901;" d="M128 896 q-13 0 -25 -5 q-11 -5 -20 -14 q-19 -19 -19 -45 q0 -26 19 -45 l316 -316 q9 -10 9 -23 q0 -13 -9 -23 l-316 -316 q-19 -19 -19 -45 q0 -26 19 -45 q19 -18 45 -18 q26 0 45 18 l316 316 q10 9 23 9 q13 0 23 -9 l316 -316 q19 -18 45 -18 q26 0 45 18 q19 19 19 45 q0 26 -19 45 l-316 316 q-9 10 -9 23 q0 13 9 23 l316 316 q9 9 14 20 q5 12 5 25 q0 13 -5 25 q-5 11 -14 20 q-19 18 -45 18 q-26 0 -45 -18 l-316 -316 q-10 -9 -23 -9 q-13 0 -23 9 l-316 316 q-9 9 -21 14 q-11 5 -24 5 ZM128 -64 q-26 0 -49 10 q-23 9 -42 27 q-37 40 -37 91 q0 51 37 90 l294 294 l-294 294 q-37 39 -37 90 q0 51 37 90 q19 19 42 28 q23 10 49 10 q26 0 49 -10 q23 -9 41 -28 l294 -293 l293 293 q19 19 42 28 q23 10 49 10 q26 0 49 -10 q23 -9 41 -28 q19 -18 28 -41 q10 -23 10 -49 q0 -26 -10 -49 q-9 -23 -28 -42 l-293 -293 l293 -293 q38 -40 38 -91 q0 -51 -38 -90 q-18 -19 -41 -28 q-23 -10 -49 -10 q-26 0 -49 10 q-23 9 -42 28 l-293 293 l-294 -294 q-18 -18 -41 -27.5 q-23 -9.5 -49 -9.5 Z" /><glyph glyph-name="add" unicode="&#xe902;" d="M614 550 l0 410 l-204 0 l0 -410 l-410 0 l0 -204 l410 0 l0 -410 l204 0 l0 410 l410 0 l0 204 l-410 0 Z" /><glyph glyph-name="play-mini" unicode="&#xe903;" d="M447 405 l0 152 l153 -76 l-153 -76 ZM430 637 l-1 1 q-3 1 -7 1 q-3 1 -7 2 q-2 0 -4 -1 q-4 0 -7 -1 q-3 -2 -5 -3 q-3 -2 -5 -4 q-3 -2 -5 -5 l-2 -4 l-1 -1 q-1 -3 -1 -6 q-1 -3 -1 -6 l-1 -1 l0 -256 l1 -1 q0 -3 1 -6 q0 -3 1 -6 l1 -1 q2 -5 5 -8 q1 -1 2 -1 q3 -3 7 -5 q2 -1 3 -2 q6 -2 12 -2 q7 0 13 3 l1 1 l256 127 q8 5 12.5 12.5 q4.5 7.5 4.5 16.5 q0 9 -4.5 16.5 q-4.5 7.5 -12.5 12.5 l-256 127 Z" /><glyph glyph-name="playlist" unicode="&#xe904;" d="M128 -27 q-23 0 -39 16 q-15 15 -16 38 q1 24 16 39 q16 16 39 16 l768 0 q23 0 38.5 -15.5 q15.5 -15.5 16.5 -39.5 q-1 -23 -16 -38 q-16 -16 -39 -16 l-768 0 ZM530 265 q-23 1 -38 16 q-16 16 -17 39 q1 23 17 39 q15 15 38 16 l403 0 q23 -1 38 -16 q16 -16 16 -39 q0 -23 -16 -39 q-15 -15 -38 -16 l-403 0 ZM969 558 l-292 0 q-24 0 -39 16 q-16 15 -16 39 q0 23 15.5 38.5 q15.5 15.5 39.5 15.5 l292 0 q23 0 38.5 -15.5 q15.5 -15.5 16.5 -38.5 q-1 -24 -16 -39 q-16 -16 -39 -16 ZM135 361 q-41 21 -55.5 62.5 q-14.5 41.5 4.5 84.5 q21 41 62.5 55.5 q41.5 14.5 84.5 -5.5 q41 -21 55 -62 q15 -42 -4 -84 q-22 -42 -63 -56 q-42 -14 -84 5 ZM749 793 q6 14 2 27 q-5 13 -18 20 l-165 80 q-14 6 -28 1 q-13 -4 -21 -18 l-174 -360 q-17 34 -47 59 q-30 25 -73 36 q-54 12 -106 -7 q-51 -19 -84 -64 q-54 -81 -26 -165 q29 -84 119 -117 q68 -20 129 9 q61 29 93 92 l221 455 l131 -64 q14 -6 27 -1.5 q13 4.5 20 17.5 Z" /><glyph glyph-name="music" unicode="&#xe905;" d="M725 153 q-38 1 -64 27 q-26 27 -27 66 q1 40 27 66 q26 26 64 27 q39 -1 65 -27 q26 -26 27 -66 q-1 -39 -27 -66 q-26 -26 -65 -27 ZM451 781 l366 107 l0 -59 l-366 -107 l0 59 ZM299 29 q-39 1 -65 27 q-26 26 -27 66 q1 39 27 65.5 q26 26.5 65 27.5 q38 -1 64 -27 q26 -27 27 -66 q-1 -40 -27 -66 q-26 -26 -64 -27 ZM878 929 q0 7 -3.5 13.5 q-3.5 6.5 -8.5 11.5 q-6 4 -13 5 q-7 2 -14 0 l-427 -125 q-10 -3 -16 -11 q-6 -8 -6 -19 l0 -559 q-19 15 -42 24 q-23 8 -49 8 q-65 -2 -108 -45 q-43 -44 -45 -110 q2 -66 45 -110 q43 -44 108 -45 q64 1 107 45 q43 44 45 110 l0 535 l366 107 l0 -395 q-19 15 -43 24 q-23 8 -49 8 q-64 -1 -107 -45 q-43 -44 -45 -110 q2 -66 45 -109.5 q43 -43.5 107 -45.5 q65 2 108 45.5 q43 43.5 45 109.5 l0 683 Z" /><glyph glyph-name="Search" unicode="&#xe906;" d="M862 149 l-218 218 q26 32 41 73 q14 41 15 89 q-3 115 -79 190 q-75 76 -190 79 q-115 -3 -190 -79 q-76 -75 -79 -190 q3 -115 79 -190 q75 -76 190 -79 q45 1 86 15 q41 15 76 41 l213 -214 l56 47 ZM209 529 q2 92 65 154 q62 61 157 64 q95 -3 157.5 -65 q62.5 -62 64.5 -157 q-2 -95 -64.5 -157.5 q-62.5 -62.5 -157.5 -64.5 q-95 2 -157 67 q-63 64 -65 159 Z" /><glyph glyph-name="clear" unicode="&#xe907;" d="M619 82 q-15 1 -25.5 11 q-10.5 10 -10.5 26 l0 475 q0 16 11 26 q10 10 25 11 q15 -1 25 -11 q10 -10 10 -26 l0 -475 q0 -16 -10 -26 q-10 -10 -25 -11 ZM405 82 q-15 1 -25 11 q-10 10 -10 26 l0 475 q0 16 10 26 q10 10 25 11 q15 -1 25 -11 q11 -10 11 -26 l0 -475 q0 -16 -11 -26 q-10 -10 -25 -11 ZM228 9 l0 732 l568 0 l0 -732 l-568 0 ZM423 814 l0 73 l178 0 l0 -73 l-178 0 ZM903 814 l-231 0 l0 109 q0 16 -10 26 q-10 11 -26 11 l-248 0 q-16 0 -26 -11 q-10 -10 -10 -26 l0 -109 l-231 0 q-15 -1 -25 -11 q-10 -10 -11 -26 q1 -15 11 -25.5 q10 -10.5 25 -10.5 l35 0 l0 -768 q1 -16 11 -26 q10 -11 25 -11 l640 0 q15 0 25 10.5 q10 10.5 11 26.5 l0 768 l35 0 q15 0 25 10.5 q10 10.5 11 25.5 q-1 16 -11 26 q-10 10 -25 11 Z" /><glyph glyph-name="close" unicode="&#xe908;" d="M592 448 l410 -410 l-80 -80 l-410 410 l-410 -410 l-80 80 l410 410 l-410 410 l80 80 l410 -410 l402 410 l88 -80 l-410 -410 Z" /><glyph glyph-name="pause" unicode="&#xe90b;" d="M997 396 q-13 2 -24 -5 q-10 -7 -13 -21 q-32 -164 -154 -266 q-122 -101 -290 -104 q-192 5 -319 131 q-128 127 -133 317 q5 190 133 317 q127 126 319 131 q168 -3 290 -104.5 q122 -101.5 154 -265.5 q3 -14 13 -21 q11 -7 24 -5 q14 2 21.5 12.5 q7.5 10.5 5.5 24.5 q-37 187 -176.5 303.5 q-139.5 116.5 -331.5 119.5 q-219 -6 -364.5 -150.5 q-145.5 -144.5 -151.5 -361.5 q6 -217 151 -362 q146 -145 365 -150 q192 3 331 120 q140 116 176 303 q2 14 -5 24 q-7 11 -21 13 ZM384 583 l0 -256 q0 -14 9 -23 q9 -9 23 -9 q13 0 22 9 q9 9 10 23 l0 256 q-1 13 -10 22 q-9 9 -22 10 q-14 -1 -23 -10 q-9 -9 -9 -22 ZM639 327 l0 256 q0 13 -9 22 q-9 9 -23 10 q-13 -1 -22 -10 q-9 -9 -10 -22 l0 -256 q1 -14 10 -23 q9 -9 22 -9 q14 0 23 9 q9 9 9 23 Z" /><glyph glyph-name="play" unicode="&#xe90c;" d="M447 372 l0 152 l153 -76 l-153 -76 ZM430 604 l-1 1 q-3 1 -7 1 q-3 1 -7 2 q-2 -1 -4 -1 q-4 0 -7 -1 q-3 -2 -5 -4 q-3 -1 -5 -3 q-3 -2 -5 -5 l-2 -4 l-1 -1 q-1 -3 -1 -6 q-1 -3 -1 -6 l-1 -1 l0 -256 l1 -1 q0 -3 1 -6 q0 -3 1 -6 l1 -1 q2 -5 5 -8 q1 -1 2 -1 q3 -4 7 -6 q2 0 3 -1 q6 -2 11 -2 q8 0 14 3 q16 8 128.5 64 q112.5 56 128.5 64 q8 5 12.5 12.5 q4.5 7.5 4.5 16.5 q0 9 -5 17 q-4 7 -12 12 l-256 127 ZM997 396 q-13 2 -24 -5 q-10 -7 -13 -21 q-32 -164 -154 -266 q-122 -101 -290 -104 q-192 5 -319 131 q-128 127 -133 317 q5 190 133 317 q127 126 319 131 q168 -3 290 -104.5 q122 -101.5 154 -265.5 q3 -14 13 -21 q11 -7 24 -5 q14 2 21.5 12.5 q7.5 10.5 5.5 24.5 q-37 187 -176.5 303.5 q-139.5 116.5 -331.5 119.5 q-219 -6 -364.5 -150.5 q-145.5 -144.5 -151.5 -361.5 q6 -217 151 -362 q146 -145 365 -150 q192 3 331 120 q140 116 176 303 q2 14 -5 24 q-7 11 -21 13 Z" /><glyph glyph-name="prev" unicode="&#xe90d;" d="M508 960 q-192 -3 -332 -120 q-139 -116 -176 -303 q-2 -14 6 -24 q7 -11 21 -13 q13 -2 24 5 q10 7 13 21 q32 164 154 265 q122 102 290 105 q192 -5 319 -131 q128 -127 133 -317 q-5 -190 -133 -317 q-127 -126 -319 -131 q-168 3 -290 105 q-122 101 -154 265 q-3 14 -13 21 q-11 7 -24 5 q-14 -2 -21 -13 q-7 -10 -5 -24 q36 -187 175 -303 q140 -117 332 -120 q219 5 365 150 q145 145 151 362 q-6 217 -151 362 q-146 144 -365 150 ZM704 524 l0 -152 l-152 76 l152 76 ZM449 372 l-153 76 l153 76 l0 -152 ZM512 577 q0 3 -1 6 q0 3 -1 6 l-1 1 l-2 4 q-2 3 -5 5 q-2 2 -5 3 q-2 2 -5 4 q-3 1 -7 1 q-2 1 -5 1 l-6 -2 q-4 0 -7 -1 l-1 -1 l-255 -127 q-9 -5 -13 -12 q-5 -8 -5 -17 q0 -9 5 -17 q4 -7 13 -12 l256 -128 q6 -3 14 -3 q5 0 11 2 q1 1 3 1 q4 2 7 6 q1 0 2 1 q3 3 5 8 l1 1 q1 3 1 6 q1 3 1 6 l1 1 l0 76 l210 -105 q6 -3 13 -3 q6 0 11 2 q2 1 3 1 q4 2 8 6 q1 0 1 1 q4 3 6 9 l2 6 q1 3 1 7 l0 257 q0 3 -1 6 q-1 3 -2 7 q-1 2 -3 4 q-2 3 -4 5 q-2 2 -5 3 q-2 2 -5 4 q-4 1 -7 1 q-2 1 -6 1 l-6 -2 q-3 0 -6 -1 l-1 -1 l-209 -104 l0 76 l-1 1 Z" /><glyph glyph-name="loop" unicode="&#xe90e;" d="M967 401 q-13 2 -23 -5 q-11 -7 -13 -20 q-32 -159 -151 -257.5 q-119 -98.5 -284 -101.5 q-164 3 -283 101.5 q-119 98.5 -151 257.5 q-2 13 -13 20 q-10 7 -23 5 q-13 -3 -20 -13 q-7 -10 -6 -23 q36 -181 172 -294 q136 -113 325 -116 q188 3 324 116 q136 113 172 294 l0 6 q0 11 -7 19 q-7 9 -19 11 ZM26 514 q13 -2 23 5 q11 7 13 20 q32 159 151 257.5 q119 98.5 284 101.5 q164 -3 283 -101.5 q119 -98.5 151 -257.5 q2 -13 12.5 -20 q10.5 -7 23.5 -5 q12 2 19 10.5 q7 8.5 7 20.5 l0 5 q-36 181 -172 294 q-136 113 -325 116 q-188 -3 -324 -116 q-136 -113 -172 -294 q-1 -13 6 -23 q7 -10 20 -13 ZM669 622 l62 -42 l-62 -42 l0 84 ZM623 451 q7 -3 15 -3 q9 0 17 5 l149 101 q6 4 10 11 q3 7 3 15 q0 8 -3.5 14.5 q-3.5 6.5 -9.5 11.5 l-149 100 q-7 5 -16 6 q-8 0 -16 -4 q-7 -4 -12 -12 q-4 -7 -4 -16 l0 -70 l-297 0 q-39 -1 -66 -27 q-26 -26 -27 -66 l0 -219 q1 -40 27 -66 q27 -26 66 -27 l357 0 q40 1 66 27 q26 26 27 66 l0 40 q0 13 -9 22 q-9 8 -22 9 q-13 -1 -22 -9 q-8 -9 -9 -22 l0 -40 q0 -13 -9 -22 q-9 -9 -22 -9 l-357 0 q-13 0 -21.5 9 q-8.5 9 -9.5 22 l0 219 q1 13 9.5 22 q8.5 9 21.5 9 l297 0 l0 -69 q0 -9 4 -16 q5 -7 12 -12 ZM489 506 q-10 -10 -25 -19 q-15 -8 -28 -11 l0 -30 q28 8 45 25 l0 -160 l30 0 l0 195 l-22 0 Z" /><glyph glyph-name="sequence" unicode="&#xe90f;" d="M967 401 q-13 2 -23 -5 q-11 -7 -13 -20 q-32 -159 -151 -257.5 q-119 -98.5 -284 -101.5 q-164 3 -283 101.5 q-119 98.5 -151 257.5 q-2 13 -13 20 q-10 7 -23 5 q-13 -3 -20 -13 q-7 -10 -6 -23 q36 -181 172 -294 q136 -113 325 -116 q188 3 324 116 q136 113 172 294 l0 6 q0 11 -7 19 q-7 9 -19 11 ZM26 514 q13 -2 23 5 q11 7 13 20 q32 159 151 257.5 q119 98.5 284 101.5 q164 -3 283 -101.5 q119 -98.5 151 -257.5 q2 -13 12.5 -20 q10.5 -7 23.5 -5 q12 2 19 10.5 q7 8.5 7 20.5 l0 5 q-36 181 -172 294 q-136 113 -325 116 q-188 -3 -324 -116 q-136 -113 -172 -294 q-1 -13 6 -23 q7 -10 20 -13 ZM669 622 l62 -42 l-62 -42 l0 84 ZM623 451 q7 -3 15 -3 q9 0 17 5 l149 101 q6 4 10 11 q3 7 3 15 q0 8 -3.5 14.5 q-3.5 6.5 -9.5 11.5 l-149 100 q-7 5 -16 6 q-8 0 -16 -4 q-7 -4 -12 -12 q-4 -7 -4 -16 l0 -70 l-297 0 q-39 -1 -66 -27 q-26 -26 -27 -66 l0 -219 q1 -40 27 -66 q27 -26 66 -27 l357 0 q40 1 66 27 q26 26 27 66 l0 40 q0 13 -9 22 q-9 8 -22 9 q-13 -1 -22 -9 q-8 -9 -9 -22 l0 -40 q0 -13 -9 -22 q-9 -9 -22 -9 l-357 0 q-13 0 -21.5 9 q-8.5 9 -9.5 22 l0 219 q1 13 9.5 22 q8.5 9 21.5 9 l297 0 l0 -69 q0 -9 4 -16 q5 -7 12 -12 Z" /><glyph glyph-name="random" unicode="&#xe910;" d="M704 555 l0 86 l63 -43 l-63 -43 ZM843 625 l-154 104 q-7 4 -16 5 q-8 0 -16 -4 q-8 -4 -13 -12 q-4 -7 -4 -16 l0 -65 l-64 0 q-81 -2 -136 -57 q-54 -55 -56 -138 q-1 -55 -37 -92 q-36 -36 -90 -38 l-32 0 q-14 0 -23 -9 q-9 -9 -9 -23 q0 -14 9 -23 q9 -9 23 -10 l32 0 q81 2 135 57 q54 55 56 138 q2 55 38 92 q36 36 90 38 l64 0 l0 -78 q0 -9 4 -17 q5 -7 13 -12 q7 -4 15 -4 q9 0 17 6 l154 104 q6 4 10 11 q4 8 4 16 q0 8 -4 15 q-4 7 -10 12 ZM225 572 l32 0 q28 0 56 -14 q7 -3 14 -3 q9 0 16 4 q8 5 12 14 q6 12 2 24.5 q-4 12.5 -16 18.5 q-41 21 -84 21 l-32 0 q-14 -1 -23 -10 q-9 -9 -9 -23 q0 -14 9 -23 q9 -9 23 -9 ZM704 329 l63 -43 l-63 -43 l0 86 ZM657 154 q7 -4 15 -4 q9 0 17 5 l154 104 q6 5 10 12 q4 7 4 15 q0 8 -4 16 q-4 7 -10 11 l-154 104 q-7 5 -16 6 q-8 0 -16 -4 q-8 -5 -13 -12 q-4 -8 -4 -17 l0 -78 l-64 0 q-29 0 -56 14 q-13 6 -25 2 q-12 -4 -18 -17 q-6 -12 -2 -24 q5 -13 17 -19 q41 -21 84 -21 l64 0 l0 -65 q0 -9 4 -16 q5 -8 13 -12 ZM997 396 q-13 2 -24 -5 q-11 -7 -13 -21 q-33 -164 -155 -265 q-123 -102 -293 -105 q-170 3 -293 105 q-122 101 -155 265 q-2 14 -13 21 q-10 7 -24 5 q-14 -2 -21 -13 q-7 -10 -5 -24 q36 -187 177 -303 q140 -117 334 -120 q194 3 334 120 q141 116 178 303 l0 6 q0 12 -7 20 q-8 9 -20 11 ZM27 500 q13 -2 24 5 q11 7 13 21 q33 164 155 265 q123 102 293 105 q170 -3 293 -105 q122 -101 155 -265 q2 -14 13 -21 q11 -7 24 -5 q12 2 19 11 q8 8 8 20 q0 3 -1 6 q-36 187 -177 303 q-140 117 -334 120 q-194 -3 -334 -120 q-141 -116 -178 -303 q-2 -14 6 -24 q7 -11 21 -13 Z" /><glyph glyph-name="back" unicode="&#xe911;" d="M707 898 q-13 0 -24 -5 q-12 -4 -22 -13 l-381 -352 q-14 -13 -21 -30 q-8 -17 -8 -35 q0 -19 8 -36 q7 -17 21 -30 l381 -351 q20 -17 46 -17 q27 0 47 17 q9 9 14 20.5 q5 11.5 5 23.5 q0 13 -5 24 q-5 11 -14 20 l-278 263 q-14 13 -22 30 q-7 17 -7 36 q0 18 7 35 q8 17 21 30 l279 264 q9 9 14 20 q5 11 5 24 q0 12 -5 23.5 q-5 11.5 -14 20.5 q-10 9 -22 13 q-11 5 -25 5 ZM707 -34 q-26 0 -49 10 q-24 9 -43 27 l-52 49 l-329 300 q-23 23 -35.5 51 q-12.5 28 -12.5 60 q0 31 12.5 59 q12.5 28 35.5 50 l382 352 q18 17 42 27 q23 9 49 9 q27 0 50 -9 q24 -10 43 -27 q18 -18 28 -40.5 q10 -22.5 10 -47.5 q0 -25 -10 -48 q-10 -22 -28 -40 l-279 -263 q-9 -10 -9 -22 q0 -13 10 -22 l278 -263 q18 -18 28 -40 q10 -23 10 -48 q0 -25 -10 -47 q-10 -23 -28 -40 q-19 -18 -43 -27 q-23 -10 -50 -10 Z" /><glyph glyph-name="mine" unicode="&#xe912;" d="M736 339 q-14 0 -23 -8.5 q-9 -8.5 -9 -22.5 q0 -13 9 -21.5 q9 -8.5 23 -9.5 q95 -2 158 -63 q64 -62 66 -154 q0 -13 -9 -22 q-9 -9 -23 -9 l-832 0 q-14 0 -23 9 q-9 9 -9 22 q2 92 66 154 q63 61 158 63 q14 1 23 9.5 q9 8.5 9 21.5 q0 14 -9 22.5 q-9 8.5 -23 8.5 q-122 -3 -203.5 -81.5 q-81.5 -78.5 -84.5 -197.5 q1 -39 28 -66 q27 -26 68 -27 l832 0 q41 1 68 27 q27 27 28 66 q-3 119 -84 197 q-82 79 -204 82 ZM512 898 q95 -3 158 -82 q64 -79 66 -197 q-2 -119 -66 -198 q-63 -79 -158 -82 q-95 3 -158.5 82 q-63.5 79 -65.5 198 q2 118 66 197 q63 79 158 82 ZM512 277 q122 4 204 100 q81 97 84 242 q-3 145 -84 241 q-82 96 -204 100 q-59 0 -112 -26.5 q-53 -26.5 -94 -76.5 q-40 -48 -61 -109 q-21 -61 -21 -129 q3 -145 84 -242 q82 -96 204 -100 Z" /><glyph glyph-name="next" unicode="&#xe913;" d="M516 -64 q192 3 332 120 q139 116 176 303 q2 14 -6 24 q-7 11 -21 13 q-13 2 -24 -5 q-10 -7 -13 -21 q-32 -164 -154 -265 q-122 -102 -290 -105 q-192 5 -319 131 q-128 127 -133 317 q5 190 133 317 q127 126 319 131 q168 -3 290 -105 q122 -101 154 -265 q3 -14 13 -21 q11 -7 24 -5 q14 2 21 13 q7 10 5 24 q-36 187 -175 303 q-140 117 -332 120 q-219 -6 -365 -150 q-145 -145 -151 -362 q6 -217 151 -362 q146 -145 365 -150 ZM320 372 l0 152 l152 -76 l-152 -76 ZM575 524 l153 -76 l-153 -76 l0 152 ZM512 319 q0 -3 1 -6 q0 -3 1 -6 l1 -1 q1 -2 3 -4 q1 -3 4 -5 q2 -2 5 -4 q2 -1 5 -3 q3 -1 7 -1 q2 -1 5 -1 l6 2 q4 0 8 1 l255 128 q9 5 13 12 q5 8 5 17 q0 9 -5 17 q-4 7 -13 12 l-255 127 l-1 1 q-6 3 -14 3 q-5 0 -11 -2 q-1 -1 -3 -2 q-4 -2 -7 -5 q-1 0 -2 -1 q-3 -3 -5 -8 l-1 -1 q-1 -3 -1 -6 q-1 -3 -1 -6 l-1 -1 l0 -76 l-209 104 l-1 1 q-6 3 -13 3 q-6 0 -11 -2 q-2 -1 -3 -2 q-4 -2 -8 -5 q-1 0 -1 -1 q-4 -3 -6 -9 l-2 -6 q-1 -3 -1 -7 l0 -257 q0 -3 1 -6 q1 -3 2 -7 q1 -2 3 -4 q2 -3 4 -5 q2 -2 5 -4 q2 -1 5 -3 q4 -1 7 -1 q2 -1 6 -1 l6 2 q3 0 7 1 l209 105 l0 -76 l1 -1 Z" /><glyph glyph-name="dismiss" unicode="&#xe914;" d="M512 -64 q-218 5 -362 150 q-145 144 -150 362 q5 218 149.5 362.5 q144.5 144.5 362.5 149.5 q218 -5 362.5 -149.5 q144.5 -144.5 149.5 -362.5 q-5 -218 -149.5 -362.5 q-144.5 -144.5 -362.5 -149.5 ZM505 500 l-204 204 l-45 -45 l204 -204 l-204 -204 l45 -45 l204 204 l204 -204 l45 45 l-204 204 l204 204 l-45 45 l-204 -204 Z" /><glyph glyph-name="pause-mini" unicode="&#xe915;" d="M602 646 q-14 -1 -22 -10 q-9 -9 -9 -21 l0 -256 q0 -14 9.5 -22 q9.5 -8 21.5 -9 q13 1 22 10 q8 9 8 21 l0 256 q0 14 -8 22 q-9 8 -22 9 ZM422 646 q-13 -1 -22 -10 q-8 -9 -8 -21 l0 -256 q0 -14 9 -22 q9 -8 21 -9 q14 1 22 10 q9 9 9 21 l0 256 q0 14 -9 22 q-8 8 -22 9 Z" /></font>
</defs>
</svg>
